<svg xmlns="http://www.w3.org/2000/svg" xmlns:xlink="http://www.w3.org/1999/xlink" id="Glyph" x="0px" y="0px" viewBox="0 0 56 56" style="enable-background:new 0 0 56 56;" xml:space="preserve"><path d="M55.6,2.3l-20.3,15L53.9,36c1.3-0.7,2.1-2,2.1-3.5V4C56,3.4,55.9,2.9,55.6,2.3z M33.7,18.5c-1.6,1.3-3.6,2.6-5.7,2.5 c-2.1,0.1-4.1-1.2-5.7-2.5c-1,0.9-17.7,17.7-17.9,17.9h47.2C51.4,36.2,34.6,19.4,33.7,18.5z M25,18c1.8,1.3,4.2,1.3,6,0L54.4,0.8 C53.7,0.3,52.9,0,52,0H4C3.3,0,2.7,0.2,2.1,0.5L25,18z M0.6,1.9C0.2,2.5,0,3.3,0,4v28.4C0,34,0.8,35.2,2.1,36l18.6-18.7L0.6,1.9z"></path></svg>